<?xml version="1.0" encoding="UTF-8" standalone="no"?>
<svg
   viewBox="0 0 274.10509 377.89312"
   version="1.1"
   id="svg207"
   sodipodi:docname="ODONTOGRAMA_Mesa de trabajo 1.svg"
   width="274.1051"
   height="377.89313"
   inkscape:version="1.1.2 (0a00cf5339, 2022-02-04)"
   xmlns:inkscape="http://www.inkscape.org/namespaces/inkscape"
   xmlns:sodipodi="http://sodipodi.sourceforge.net/DTD/sodipodi-0.dtd"
   xmlns="http://www.w3.org/2000/svg"
   xmlns:svg="http://www.w3.org/2000/svg">
  <sodipodi:namedview
     id="namedview209"
     pagecolor="#ffffff"
     bordercolor="#666666"
     borderopacity="1.0"
     inkscape:pageshadow="2"
     inkscape:pageopacity="0.0"
     inkscape:pagecheckerboard="0"
     showgrid="false"
     inkscape:zoom="0.84096497"
     inkscape:cx="70.752055"
     inkscape:cy="185.50119"
     inkscape:window-width="1920"
     inkscape:window-height="944"
     inkscape:window-x="0"
     inkscape:window-y="0"
     inkscape:window-maximized="1"
     inkscape:current-layer="Capa_2"
     fit-margin-top="0"
     fit-margin-left="0"
     fit-margin-right="0"
     fit-margin-bottom="0" />
  <defs
     id="defs140">
    <style
       id="style133">.cls-1{fill:url(#Degradado_sin_nombre_126);}.cls-2{fill:#fff;opacity:0.9;}.cls-3{fill:none;stroke:#57b3e5;stroke-linecap:round;stroke-linejoin:round;}.cls-3,.cls-4{opacity:0.4;}.cls-4,.cls-5{fill:#57b3e5;}.cls-6{fill:#fecf62;}</style>
    <linearGradient
       id="Degradado_sin_nombre_126"
       x1="-232.34"
       y1="-74.540001"
       x2="639.67999"
       y2="797.48999"
       gradientUnits="userSpaceOnUse">
      <stop
         offset="0"
         stop-color="#57b3e5"
         id="stop135" />
      <stop
         offset="1"
         stop-color="#fff"
         id="stop137" />
    </linearGradient>
  </defs>
  <g
     id="Capa_2"
     data-name="Capa 2"
     transform="translate(-155.6005,-235.05883)">
    <path
       class="cls-4"
       d="m 291,239.18 c 0.9,10.35 -4,24.47 -12,25.35 -9.24,1 -15.44,-10.66 -19.06,-20.41 -1,-2.62 3.27,-6.77 14.59,-8.24 9.21,-1.19 16.03,-1.79 16.47,3.3 z"
       id="path150"
       inkscape:export-filename="/home/gelanderos/odontograma/11.svg"
       inkscape:export-xdpi="96"
       inkscape:export-ydpi="96" />
    <path
       class="cls-4"
       d="m 257.41,245.24 c 2.94,11 1.77,21.88 -2.73,24.55 -4.85,2.88 -15,-4.42 -22,-12.16 -1.86,-2.08 0,-5.22 10,-10.75 8.19,-4.5 13.89,-4.81 14.73,-1.64 z"
       id="path152"
       inkscape:export-filename="/home/gelanderos/odontograma/12.svg"
       inkscape:export-xdpi="96"
       inkscape:export-ydpi="96" />
    <path
       class="cls-4"
       d="m 232.65,261.53 c 5.56,9.93 8.23,19.92 4.54,23.62 -4,4 -20.13,-2.09 -24.25,-9.15 -2,-3.46 -2.19,-8.84 3.22,-13.72 6.9,-6.22 14.89,-3.61 16.49,-0.75 z"
       id="path154"
       inkscape:export-filename="/home/gelanderos/odontograma/13.svg"
       inkscape:export-xdpi="96"
       inkscape:export-ydpi="96" />
    <path
       class="cls-4"
       d="m 202,307.41 c 9.57,6.17 11.91,12.53 10.15,18.47 -2,6.65 -15.44,6.71 -24.15,1.12 -6.87,-4.41 -11.46,-8.82 -8.35,-15.41 4.7,-10 19.6,-5.95 22.35,-4.18 z"
       id="path156"
       inkscape:export-filename="/home/gelanderos/15.svg"
       inkscape:export-xdpi="96"
       inkscape:export-ydpi="96" />
    <path
       class="cls-4"
       d="m 193,334.32 c 9.57,6.17 14.12,13.33 10.85,25.77 -2.9,11.05 -20.76,11.76 -29.47,6.17 -4.42,-2.84 -9.51,-7 -8.82,-12.26 1.23,-9.53 5.16,-7.23 6.31,-11 1,-3.3 -2.16,-5.65 2.6,-10.41 5.17,-5.23 16.61,0.51 18.53,1.73 z"
       id="path158"
       inkscape:export-filename="/home/gelanderos/16.svg"
       inkscape:export-xdpi="96"
       inkscape:export-ydpi="96" />
    <path
       class="cls-4"
       d="m 190.49,377 c 13.32,8.82 6.53,27.73 -3.78,30.25 -15.51,3.75 -29.71,-3.85 -27.8,-11.78 2.56,-10.85 -3.18,-12.2 -0.69,-18.16 1.75,-4.16 5.63,-6.8 13.4,-6.46 8.88,0.39 13.17,2.34 18.87,6.15 z"
       id="path160"
       inkscape:export-filename="/home/gelanderos/17.svg.png"
       inkscape:export-xdpi="96"
       inkscape:export-ydpi="96" />
    <path
       class="cls-4"
       d="m 191.12,446.47 c 8.59,12.35 5.33,25 -4.94,27.65 -15.44,4 -27.53,7.88 -30.36,-2.36 -1,-3.83 1.74,-5.81 1.76,-8.35 0,-4.58 -1.54,-8.73 0,-12.59 1.68,-4.19 10.28,-9.28 18,-9.29 6.36,-0.01 11.64,-0.67 15.54,4.94 z"
       id="path162"
       inkscape:export-filename="/home/gelanderos/47.svg"
       inkscape:export-xdpi="96"
       inkscape:export-ydpi="96" />
    <path
       class="cls-4"
       d="m 200.82,482.56 c 3.94,3.91 4.71,21.19 -3.53,27.88 -7,5.74 -19.5,8.91 -24.17,3.27 -2.54,-3.07 -2.69,-8.49 -3.36,-11 -1.19,-4.42 -5.39,-5.57 -4.94,-9.7 0.49,-4.49 8.47,-12.39 16,-14.48 6.03,-1.66 15.18,-0.78 20,4.03 z"
       id="path164"
       inkscape:export-filename="/home/gelanderos/46.svg"
       inkscape:export-xdpi="96"
       inkscape:export-ydpi="96" />
    <path
       class="cls-4"
       d="m 212.65,521.65 c 3.53,9.64 -8.2,22.89 -22,22 -9.06,-0.59 -12.1,-7.29 -11.65,-11.41 0.49,-4.5 4.87,-10.5 12.35,-12.59 6.08,-1.71 18.95,-4.42 21.3,2 z"
       id="path166"
       inkscape:export-filename="/home/gelanderos/45.svg"
       inkscape:export-xdpi="96"
       inkscape:export-ydpi="96" />
    <path
       class="cls-4"
       d="m 220.76,544.94 c 3.53,9.65 -3.28,22.07 -17.08,21.18 -9.06,-0.59 -10.78,-6.7 -10.33,-10.83 0.49,-4.49 2.19,-7.75 8.94,-11.6 5.18,-2.96 16.13,-5.16 18.47,1.25 z"
       id="path168"
       inkscape:export-filename="/home/gelanderos/44.svg"
       inkscape:export-xdpi="96"
       inkscape:export-ydpi="96" />
    <path
       class="cls-4"
       d="m 235.59,564.76 c 4.76,4.53 -1.81,24.63 -9.71,25 -9.07,0.43 -16.22,-8.93 -15.77,-13 0.48,-4.5 2.08,-7.5 8.83,-11.36 5.18,-3 12.73,-4.4 16.65,-0.64 z"
       id="path170"
       inkscape:export-filename="/home/gelanderos/43.svg"
       inkscape:export-xdpi="96"
       inkscape:export-ydpi="96" />
    <path
       class="cls-4"
       d="m 257.94,583 c 1.84,6.31 3.35,22.11 -3.23,22.1 -9.08,0 -23.63,-7.87 -23.18,-12 0.49,-4.49 5,-7.61 11.23,-12.3 5.53,-4.21 12.59,-6.68 15.18,2.2 z"
       id="path172"
       inkscape:export-filename="/home/gelanderos/42.svg"
       inkscape:export-xdpi="96"
       inkscape:export-ydpi="96" />
    <path
       class="cls-4"
       d="m 287,589.85 c 1.46,2.65 7.44,19.72 1.85,21.89 -8.46,3.27 -30,-0.53 -30.22,-6 -0.18,-4.51 5.18,-14.2 11.38,-18.88 5.56,-4.23 12.58,-5.08 16.99,2.99 z"
       id="path174"
       inkscape:export-filename="/home/gelanderos/41.svg"
       inkscape:export-xdpi="96"
       inkscape:export-ydpi="96" />
    <path
       class="cls-5"
       d="m 216.94,286.42 c 4.33,5.16 5.47,14.17 3.77,19.52 -2.51,7.87 -30.37,-5.21 -27.25,-14.47 3.95,-11.76 20.07,-9.12 23.48,-5.05 z"
       id="path176"
       inkscape:export-filename="/home/gelanderos/14.svg"
       inkscape:export-xdpi="96"
       inkscape:export-ydpi="96"
       style="opacity:0.4" />
    <path
       class="cls-4"
       d="m 292.48,239.18 c -0.91,10.35 4,24.47 12.16,25.35 9.36,1 15.65,-10.66 19.31,-20.41 1,-2.62 -3.31,-6.77 -14.78,-8.24 -9.34,-1.19 -16.24,-1.79 -16.69,3.3 z"
       id="path178"
       inkscape:export-filename="/home/gelanderos/21.svg"
       inkscape:export-xdpi="96"
       inkscape:export-ydpi="96" />
    <path
       class="cls-4"
       d="m 326.52,245.24 c -3,11 -1.79,21.88 2.76,24.55 4.92,2.88 15.23,-4.42 22.27,-12.16 1.89,-2.08 0,-5.22 -10.16,-10.75 -8.24,-4.5 -14.02,-4.81 -14.87,-1.64 z"
       id="path180"
       inkscape:export-filename="/home/gelanderos/22.svg"
       inkscape:export-xdpi="96"
       inkscape:export-ydpi="96" />
    <path
       class="cls-4"
       d="m 351.61,261.53 c -5.64,9.93 -8.34,19.92 -4.6,23.62 4.05,4 20.4,-2.09 24.57,-9.15 2.05,-3.46 2.22,-8.84 -3.26,-13.72 -7,-6.22 -15.09,-3.61 -16.71,-0.75 z"
       id="path182"
       inkscape:export-filename="/home/gelanderos/23.svg"
       inkscape:export-xdpi="96"
       inkscape:export-ydpi="96" />
    <path
       class="cls-4"
       d="m 382.67,307.41 c -9.7,6.17 -12.07,12.53 -10.29,18.47 2,6.65 15.65,6.71 24.48,1.12 7,-4.41 11.61,-8.82 8.46,-15.41 -4.77,-10 -19.86,-5.95 -22.65,-4.18 z"
       id="path184"
       inkscape:export-filename="/home/gelanderos/25.svg"
       inkscape:export-xdpi="96"
       inkscape:export-ydpi="96" />
    <path
       class="cls-4"
       d="m 391.82,334.32 c -9.7,6.17 -14.31,13.33 -11,25.77 2.94,11.05 21,11.76 29.87,6.17 4.48,-2.84 9.63,-7 8.94,-12.26 -1.25,-9.53 -5.24,-7.23 -6.4,-11 -1,-3.3 2.2,-5.65 -2.63,-10.41 -5.27,-5.23 -16.86,0.51 -18.78,1.73 z"
       id="path186"
       inkscape:export-filename="/home/gelanderos/26.svg"
       inkscape:export-xdpi="96"
       inkscape:export-ydpi="96" />
    <path
       class="cls-4"
       d="m 394.34,377 c -13.51,8.82 -6.62,27.73 3.83,30.25 15.71,3.77 30.06,-3.81 28.16,-11.74 -2.59,-10.85 3.23,-12.2 0.7,-18.16 -1.77,-4.16 -5.7,-6.8 -13.57,-6.46 -9.01,0.35 -13.35,2.3 -19.12,6.11 z"
       id="path188"
       inkscape:export-filename="/home/gelanderos/27.svg"
       inkscape:export-xdpi="96"
       inkscape:export-ydpi="96" />
    <path
       class="cls-4"
       d="m 393.7,446.47 c -8.71,12.35 -5.4,25 5,27.65 15.65,4 27.9,7.88 30.76,-2.36 1.08,-3.83 -1.75,-5.81 -1.78,-8.35 0,-4.58 1.57,-8.73 0,-12.59 -1.7,-4.19 -10.41,-9.28 -18.29,-9.29 -6.39,-0.01 -11.74,-0.67 -15.69,4.94 z"
       id="path190"
       inkscape:export-filename="/home/gelanderos/37.svg"
       inkscape:export-xdpi="96"
       inkscape:export-ydpi="96" />
    <path
       class="cls-6"
       d="m 383.86,482.56 c -4,3.91 -4.77,21.19 3.58,27.88 7.15,5.74 19.76,8.91 24.5,3.27 2.57,-3.07 2.73,-8.49 3.4,-11 1.2,-4.42 5.46,-5.57 5,-9.7 -0.49,-4.49 -8.58,-12.39 -16.16,-14.48 -6.18,-1.66 -15.41,-0.78 -20.32,4.03 z"
       id="path192"
       inkscape:export-filename="/home/gelanderos/36.svg"
       inkscape:export-xdpi="96"
       inkscape:export-ydpi="96"
       style="fill:#57b3e5;fill-opacity:1;opacity:0.4" />
    <path
       class="cls-4"
       d="m 371.88,521.65 c -3.58,9.64 8.31,22.89 22.29,22 9.18,-0.59 12.26,-7.29 11.81,-11.41 -0.5,-4.5 -4.94,-10.5 -12.52,-12.59 -6.16,-1.71 -19.2,-4.42 -21.58,2 z"
       id="path194"
       inkscape:export-filename="/home/gelanderos/35.svg"
       inkscape:export-xdpi="96"
       inkscape:export-ydpi="96" />
    <path
       class="cls-4"
       d="m 363.65,544.94 c -3.57,9.65 3.35,22.06 17.35,21.18 9.18,-0.59 10.93,-6.7 10.47,-10.83 -0.49,-4.49 -2.22,-7.75 -9.06,-11.6 -5.28,-2.96 -16.41,-5.16 -18.76,1.25 z"
       id="path196"
       inkscape:export-filename="/home/gelanderos/34.svg"
       inkscape:export-xdpi="96"
       inkscape:export-ydpi="96" />
    <path
       class="cls-4"
       d="m 348.63,564.76 c -4.83,4.53 1.84,24.63 9.84,25 9.19,0.43 16.44,-8.93 16,-13 -0.49,-4.5 -2.11,-7.5 -8.95,-11.36 -5.26,-3 -12.92,-4.4 -16.89,-0.64 z"
       id="path198"
       inkscape:export-filename="/home/gelanderos/33.svg"
       inkscape:export-xdpi="96"
       inkscape:export-ydpi="96" />
    <path
       class="cls-4"
       d="m 326,583 c -1.87,6.31 -3.4,22.11 3.28,22.1 9.2,0 23.94,-7.87 23.48,-12 -0.49,-4.49 -5.1,-7.61 -11.38,-12.3 -5.62,-4.21 -12.78,-6.68 -15.38,2.2 z"
       id="path200"
       inkscape:export-filename="/home/gelanderos/32.svg"
       inkscape:export-xdpi="96"
       inkscape:export-ydpi="96" />
    <path
       class="cls-4"
       d="m 296.5,589.85 c -1.47,2.65 -7.53,19.72 -1.88,21.89 8.58,3.27 30.41,-0.53 30.63,-6 0.18,-4.51 -5.25,-14.2 -11.54,-18.88 -5.6,-4.23 -12.71,-5.08 -17.21,2.99 z"
       id="path202"
       inkscape:export-filename="/home/gelanderos/31.svg"
       inkscape:export-xdpi="96"
       inkscape:export-ydpi="96" />
    <path
       class="cls-4"
       d="m 367.53,286.42 c -4.39,5.16 -5.55,14.17 -3.82,19.52 2.55,7.87 30.77,-5.21 27.62,-14.47 -4.01,-11.76 -20.33,-9.12 -23.8,-5.05 z"
       id="path204"
       inkscape:export-filename="/home/gelanderos/24.svg"
       inkscape:export-xdpi="96"
       inkscape:export-ydpi="96" />
  </g>
</svg>
